<?xml version="1.0" encoding="UTF-8" standalone="no"?>
<svg
   xmlns:dc="http://purl.org/dc/elements/1.1/"
   xmlns:cc="http://creativecommons.org/ns#"
   xmlns:rdf="http://www.w3.org/1999/02/22-rdf-syntax-ns#"
   xmlns:svg="http://www.w3.org/2000/svg"
   xmlns="http://www.w3.org/2000/svg"
   xml:space="preserve"
   enable-background="new 0 0 873.487 242"
   viewBox="0 0 300 80"
   height="80"
   width="300"
   y="0px"
   x="0px"
   id="Layer_1"
   version="1.1"><metadata
     id="metadata59"><rdf:RDF><cc:Work
         rdf:about=""><dc:format>image/svg+xml</dc:format><dc:type
           rdf:resource="http://purl.org/dc/dcmitype/StillImage" /><dc:title></dc:title></cc:Work></rdf:RDF></metadata><defs
     id="defs57" /><g
     transform="matrix(0.34194773,0,0,0.34194773,0.30756586,-1.437594)"
     id="g3"><path
       style="fill:#010101"
       id="path5"
       d="m 251.347,132.779 c -0.517,-1.195 -0.961,-2.455 -1.333,-3.78 -0.372,-1.324 -0.638,-2.682 -0.799,-4.07 -1.454,2.551 -3.369,4.669 -5.743,6.348 -2.375,1.68 -5.21,2.521 -8.505,2.521 -5.493,0 -9.725,-1.413 -12.697,-4.24 -2.972,-2.828 -4.458,-6.68 -4.458,-11.559 0,-5.137 1.979,-9.118 5.936,-11.945 3.958,-2.827 9.733,-4.241 17.326,-4.241 l 7.898,0 0,-4.168 c 0,-2.52 -0.662,-4.474 -1.986,-5.863 -1.326,-1.389 -3.28,-2.084 -5.864,-2.084 -2.295,0 -4.063,0.557 -5.307,1.672 -1.244,1.114 -1.865,2.658 -1.865,4.628 l -13.667,-0.048 -0.048,-0.291 c -0.226,-4.426 1.696,-8.246 5.767,-11.461 4.071,-3.215 9.417,-4.822 16.041,-4.822 6.267,0 11.355,1.592 15.265,4.773 3.909,3.183 5.864,7.714 5.864,13.594 l 0,21.662 c 0,2.455 0.185,4.766 0.557,6.93 0.371,2.165 0.961,4.312 1.768,6.445 l -14.15,0 z m -12.939,-9.45 c 2.487,0 4.701,-0.613 6.639,-1.842 1.939,-1.227 3.247,-2.648 3.925,-4.264 l 0,-7.415 -7.898,0 c -3.005,0 -5.283,0.751 -6.833,2.254 -1.551,1.502 -2.327,3.319 -2.327,5.452 0,1.744 0.582,3.149 1.745,4.216 1.163,1.066 2.746,1.599 4.749,1.599" /><rect
       style="fill:#010101"
       id="rect7"
       height="75.599998"
       width="14.151"
       y="57.179001"
       x="274.608" /><path
       style="fill:#010101"
       id="path9"
       d="m 347.688,108.015 c 0,7.754 -1.794,13.99 -5.38,18.707 -3.585,4.717 -8.594,7.075 -15.022,7.075 -2.747,0 -5.186,-0.51 -7.318,-1.526 -2.132,-1.018 -3.958,-2.512 -5.476,-4.484 l 0,25.153 -14.102,0 0,-72.596 12.745,0 0.824,6.204 c 1.551,-2.294 3.416,-4.063 5.597,-5.307 2.181,-1.243 4.725,-1.866 7.633,-1.866 6.494,0 11.534,2.537 15.119,7.609 3.586,5.072 5.38,11.744 5.38,20.014 l 0,1.017 z m -14.151,-1.089 c 0,-4.951 -0.824,-8.962 -2.471,-12.037 -1.648,-3.073 -4.168,-4.61 -7.56,-4.61 -2.133,0 -3.95,0.437 -5.452,1.311 -1.502,0.874 -2.69,2.119 -3.562,3.736 l 0,23.005 c 0.872,1.489 2.06,2.62 3.562,3.397 1.502,0.777 3.351,1.165 5.548,1.165 3.425,0 5.937,-1.342 7.536,-4.029 1.6,-2.684 2.399,-6.324 2.399,-10.919 l 0,-1.019 z" /><path
       style="fill:#010101"
       id="path11"
       d="m 370.221,86.983 c 1.648,-2.391 3.667,-4.256 6.058,-5.597 2.39,-1.34 5.04,-2.011 7.947,-2.011 5.46,0 9.748,1.817 12.867,5.451 3.117,3.635 4.676,9.249 4.676,16.841 l 0,31.112 -14.151,0 0,-31.28 c 0,-4.08 -0.719,-6.971 -2.156,-8.67 -1.438,-1.7 -3.578,-2.551 -6.421,-2.551 -1.938,0 -3.651,0.349 -5.137,1.044 -1.486,0.697 -2.714,1.676 -3.683,2.939 l 0,38.518 -14.15,0 0,-75.6 14.15,0 0,29.804 z" /><path
       style="fill:#010101"
       id="path13"
       d="m 443.204,132.779 c -0.518,-1.195 -0.962,-2.455 -1.333,-3.78 -0.372,-1.324 -0.639,-2.682 -0.8,-4.07 -1.454,2.551 -3.369,4.669 -5.743,6.348 -2.375,1.68 -5.21,2.521 -8.505,2.521 -5.493,0 -9.725,-1.413 -12.697,-4.24 -2.972,-2.828 -4.458,-6.68 -4.458,-11.559 0,-5.137 1.979,-9.118 5.936,-11.945 3.958,-2.827 9.733,-4.241 17.326,-4.241 l 7.898,0 0,-4.168 c 0,-2.52 -0.662,-4.474 -1.986,-5.863 -1.326,-1.389 -3.28,-2.084 -5.864,-2.084 -2.295,0 -4.063,0.557 -5.307,1.672 -1.244,1.114 -1.865,2.658 -1.865,4.628 l -13.667,-0.048 -0.048,-0.291 c -0.226,-4.426 1.696,-8.246 5.767,-11.461 4.071,-3.215 9.417,-4.822 16.041,-4.822 6.268,0 11.355,1.592 15.266,4.773 3.908,3.183 5.863,7.714 5.863,13.594 l 0,21.662 c 0,2.455 0.186,4.766 0.558,6.93 0.371,2.165 0.961,4.312 1.768,6.445 l -14.15,0 z m -12.939,-9.45 c 2.487,0 4.701,-0.613 6.639,-1.842 1.939,-1.227 3.247,-2.648 3.925,-4.264 l 0,-7.415 -7.898,0 c -3.005,0 -5.283,0.751 -6.833,2.254 -1.551,1.502 -2.327,3.319 -2.327,5.452 0,1.744 0.582,3.149 1.745,4.216 1.163,1.066 2.746,1.599 4.749,1.599" /><path
       style="fill:#010101"
       id="path15"
       d="m 478.677,80.344 0.63,7.511 c 1.745,-2.681 3.894,-4.765 6.445,-6.251 2.552,-1.486 5.411,-2.229 8.578,-2.229 5.298,0 9.433,1.664 12.405,4.991 2.973,3.328 4.458,8.546 4.458,15.653 l 0,32.76 -14.198,0 0,-32.787 c 0,-3.529 -0.711,-6.03 -2.132,-7.503 -1.423,-1.474 -3.57,-2.21 -6.445,-2.21 -1.874,0 -3.555,0.38 -5.04,1.141 -1.487,0.761 -2.731,1.838 -3.732,3.23 l 0,38.129 -14.149,0 0,-52.435 13.18,0 z" /><path
       style="fill:#010101"
       id="path17"
       d="m 544.972,133.797 c -7.562,0 -13.603,-2.423 -18.125,-7.27 -4.524,-4.847 -6.784,-11.001 -6.784,-18.464 l 0,-1.938 c 0,-7.786 2.139,-14.2 6.42,-19.24 4.281,-5.039 10.024,-7.543 17.229,-7.511 7.075,0 12.566,2.133 16.478,6.397 3.908,4.264 5.863,10.031 5.863,17.3 l 0,7.706 -31.307,0 -0.097,0.289 c 0.258,3.444 1.414,6.275 3.465,8.496 2.051,2.22 4.838,3.33 8.36,3.33 3.133,0 5.733,-0.315 7.802,-0.945 2.067,-0.63 4.329,-1.624 6.785,-2.981 l 3.828,8.745 c -2.132,1.753 -4.927,3.205 -8.384,4.356 -3.457,1.154 -7.303,1.73 -11.533,1.73 m -1.261,-43.518 c -2.616,0 -4.686,1.001 -6.202,3.004 -1.521,2.004 -2.456,4.637 -2.813,7.899 l 0.146,0.243 17.349,0 0,-1.26 c 0,-3.005 -0.703,-5.404 -2.107,-7.197 -1.405,-1.793 -3.53,-2.689 -6.373,-2.689" /><polygon
       style="fill:#010101"
       id="polygon19"
       points="620.184,114.024 627.016,80.344 640.294,80.344 626.967,132.779 615.144,132.779 605.402,101.569 605.112,101.569 595.371,132.779 583.595,132.779 570.269,80.344 583.546,80.344 590.477,113.927 590.768,113.927 600.556,80.344 610.006,80.344 619.893,114.024 " /><path
       style="fill:#010101"
       id="path21"
       d="m 675.67,118.337 c 0,-1.551 -0.751,-2.891 -2.254,-4.022 -1.502,-1.131 -4.288,-2.132 -8.358,-3.005 -6.203,-1.26 -10.879,-3.125 -14.03,-5.597 -3.149,-2.472 -4.724,-5.839 -4.724,-10.104 0,-4.523 1.896,-8.359 5.693,-11.509 3.796,-3.15 8.876,-4.725 15.24,-4.725 6.688,0 12.01,1.567 15.968,4.7 3.957,3.135 5.856,7.092 5.694,11.873 l -0.096,0.291 -13.666,0 c 0,-2.1 -0.671,-3.812 -2.012,-5.137 -1.342,-1.324 -3.304,-1.987 -5.889,-1.987 -2.294,0 -4.094,0.557 -5.403,1.672 -1.309,1.115 -1.963,2.512 -1.963,4.192 0,1.616 0.688,2.94 2.061,3.974 1.373,1.034 4.16,1.955 8.359,2.762 6.461,1.292 11.26,3.191 14.394,5.694 3.132,2.504 4.7,5.953 4.7,10.346 0,4.718 -2.021,8.571 -6.059,11.559 -4.038,2.987 -9.369,4.481 -15.991,4.481 -6.978,0 -12.495,-1.768 -16.55,-5.306 -4.054,-3.538 -5.984,-7.568 -5.791,-12.091 l 0.098,-0.291 12.938,0 c 0.097,2.811 1.019,4.846 2.762,6.105 1.745,1.261 4.023,1.891 6.833,1.891 2.617,0 4.611,-0.518 5.985,-1.552 1.374,-1.031 2.061,-2.437 2.061,-4.214" /><rect
       style="fill:#ef4144"
       id="rect23"
       height="12.406"
       width="14.149"
       y="120.373"
       x="700.047" /><rect
       style="fill:#ef4144"
       id="rect25"
       height="75.599998"
       width="14.15"
       y="57.179001"
       x="728.10498" /><path
       style="fill:#ef4144"
       id="path27"
       d="m 768.764,67.793 -14.15,0 0,-10.613 14.15,0 0,10.613 z m 0,64.986 -14.15,0 0,-52.435 14.15,0 0,52.435 z" /><polygon
       style="fill:#ef4144"
       id="polygon29"
       points="793.575,132.778 775.741,80.344 790.522,80.344 799.343,113.249 800.264,118.095 800.554,118.095 801.523,113.249 810.149,80.344 824.93,80.344 807.097,132.778 " /><path
       style="fill:#ef4144"
       id="path31"
       d="m 853.57,133.797 c -7.562,0 -13.603,-2.423 -18.125,-7.27 -4.524,-4.847 -6.784,-11.001 -6.784,-18.464 l 0,-1.938 c 0,-7.786 2.139,-14.2 6.42,-19.24 4.281,-5.039 10.024,-7.543 17.229,-7.511 7.075,0 12.566,2.133 16.478,6.397 3.908,4.264 5.863,10.031 5.863,17.3 l 0,7.706 -31.307,0 -0.097,0.289 c 0.258,3.444 1.414,6.275 3.465,8.496 2.051,2.22 4.838,3.33 8.36,3.33 3.133,0 5.733,-0.315 7.802,-0.945 2.067,-0.63 4.329,-1.624 6.785,-2.981 l 3.828,8.745 c -2.132,1.753 -4.927,3.205 -8.384,4.356 -3.457,1.154 -7.302,1.73 -11.533,1.73 m -1.26,-43.518 c -2.616,0 -4.686,1.001 -6.202,3.004 -1.521,2.004 -2.456,4.637 -2.813,7.899 l 0.146,0.243 17.349,0 0,-1.26 c 0,-3.005 -0.703,-5.404 -2.108,-7.197 -1.405,-1.793 -3.53,-2.689 -6.372,-2.689" /><g
       id="g33"><path
         style="fill:#ef4144"
         id="path35"
         d="m 132.776,155.388 -9.132,-14.166 -2.093,0.477 -46.527,10.46 3.915,-28.127 c 1.707,-12.287 7.169,-19.549 16.233,-21.598 l 3.018,-0.677 -31.787,-49.28 -13.158,94.47 c -1.117,8.058 -1.847,13.217 7.613,11.089 l 11.577,-2.607 -1.948,13.986 c -1.067,7.684 -3.227,13.316 -6.868,17.146 l 103.472,0 c 6.6,0 12,-5.399 12,-12 l 0,-10.201 -18.35,4.128 c -12.196,2.094 -21.541,-3.136 -27.965,-13.1 z" /><path
         style="fill:#ef4144"
         id="path37"
         d="M 17.486,181.337 38.587,29.688 C 40.063,19.065 45.111,14.286 55.428,11.969 L 75.439,7.47 12,7.47 c -6.6,0 -12,5.4 -12,12 l 0,155.09 c 0,6.601 5.4,12 12,12 l 5.167,0 c -0.044,-1.627 0.063,-3.378 0.319,-5.223 z" /><path
         style="fill:#ef4144"
         id="path39"
         d="m 122.035,20.651 57.056,88.488 0,-89.669 c 0,-6.6 -5.4,-12 -12,-12 l -57.871,0 c 4.477,2.621 8.73,6.842 12.815,13.181 z" /><path
         style="fill:#ffffff"
         id="path41"
         d="M 122.035,20.651 C 117.95,14.312 113.697,10.091 109.22,7.47 l -33.781,0 -20.011,4.499 C 45.111,14.286 40.063,19.065 38.587,29.688 L 17.486,181.337 c -0.256,1.845 -0.363,3.596 -0.319,5.224 l 46.452,0 c 3.642,-3.83 5.801,-9.463 6.868,-17.146 l 1.948,-13.986 -11.577,2.607 c -9.46,2.128 -8.73,-3.031 -7.613,-11.089 l 13.158,-94.47 31.787,49.28 -3.018,0.677 c -9.064,2.049 -14.526,9.311 -16.233,21.598 l -3.915,28.127 46.527,-10.46 2.093,-0.477 9.132,14.166 c 6.424,9.964 15.769,15.194 27.965,13.1 l 18.35,-4.128 0,-55.221 -57.056,-88.488 z" /></g><path
       style="fill:#ef4144"
       id="path43"
       d="m 27.793,208.729 0,11.941 10.98,-12.066 c 0.278,-0.333 0.627,-0.501 1.045,-0.501 l 3.34,0 c 0.222,0 0.376,0.104 0.458,0.313 0.085,0.208 0.044,0.41 -0.124,0.605 l -10.146,11.273 11.482,16.158 c 0.139,0.225 0.181,0.433 0.125,0.626 -0.056,0.196 -0.194,0.292 -0.418,0.292 l -3.257,0 c -0.445,0 -0.807,-0.165 -1.085,-0.5 l -9.646,-13.526 -2.754,3.005 0,10.396 c 0,0.392 -0.195,0.585 -0.585,0.585 l -2.63,0 c -0.167,0 -0.314,-0.055 -0.438,-0.167 -0.127,-0.11 -0.189,-0.251 -0.189,-0.418 l 0,-27.973 c 0,-0.168 0.056,-0.321 0.167,-0.461 0.111,-0.139 0.264,-0.208 0.46,-0.208 l 2.588,0 c 0.196,0 0.349,0.062 0.461,0.188 0.109,0.124 0.166,0.271 0.166,0.438" /><path
       style="fill:#ef4144"
       id="path45"
       d="m 45.163,208.896 c -0.14,-0.251 -0.126,-0.438 0.041,-0.563 0.167,-0.125 0.348,-0.189 0.542,-0.189 l 2.422,0 c 0.39,0 0.696,0.209 0.919,0.628 l 6.639,12.901 6.68,-12.901 c 0.139,-0.28 0.299,-0.454 0.481,-0.522 0.181,-0.069 0.34,-0.105 0.48,-0.105 l 2.505,0 c 0.167,0 0.313,0.078 0.439,0.231 0.125,0.152 0.118,0.34 -0.022,0.562 l -8.642,16.409 0,11.398 c 0,0.141 -0.057,0.272 -0.167,0.397 -0.111,0.125 -0.25,0.187 -0.417,0.187 l -2.631,0 c -0.167,0 -0.314,-0.062 -0.439,-0.187 -0.124,-0.125 -0.187,-0.257 -0.187,-0.397 l 0,-11.398 -8.643,-16.451 z" /><path
       style="fill:#ef4144"
       id="path47"
       d="m 72.97,211.401 0,25.302 c 0,0.167 -0.062,0.313 -0.188,0.438 -0.125,0.126 -0.271,0.188 -0.438,0.188 l -2.631,0 c -0.168,0 -0.307,-0.063 -0.418,-0.188 -0.111,-0.124 -0.166,-0.271 -0.166,-0.438 l 0,-27.932 c 0,-0.196 0.055,-0.335 0.166,-0.418 0.14,-0.139 0.278,-0.209 0.418,-0.209 l 18.413,0 c 0.194,0 0.333,0.07 0.417,0.209 0.139,0.083 0.21,0.222 0.21,0.418 l 0,27.932 c 0,0.167 -0.064,0.313 -0.188,0.438 -0.125,0.126 -0.273,0.188 -0.439,0.188 l -2.63,0 c -0.167,0 -0.315,-0.063 -0.439,-0.188 -0.123,-0.124 -0.188,-0.271 -0.188,-0.438 l 0,-25.302 -11.899,0 z" /><path
       style="fill:#ef4144"
       id="path49"
       d="m 93.72,237.329 c -0.196,0 -0.35,-0.056 -0.46,-0.167 -0.112,-0.11 -0.167,-0.264 -0.167,-0.459 l 0,-27.891 c 0,-0.168 0.062,-0.321 0.188,-0.46 0.125,-0.138 0.271,-0.208 0.439,-0.208 l 9.269,0 c 0.695,0 1.383,0.02 2.066,0.063 0.682,0.041 1.349,0.14 2.004,0.291 0.654,0.154 1.273,0.384 1.859,0.689 0.584,0.307 1.141,0.725 1.669,1.254 0.807,0.807 1.405,1.815 1.797,3.026 0.388,1.21 0.583,2.415 0.583,3.611 -0.026,1.697 -0.368,3.139 -1.022,4.321 -0.655,1.184 -1.567,2.124 -2.736,2.819 -0.807,0.5 -1.732,0.869 -2.777,1.105 -1.042,0.237 -2.122,0.354 -3.235,0.354 l -6.263,0 0,11.023 c 0,0.141 -0.035,0.279 -0.104,0.417 -0.07,0.14 -0.257,0.209 -0.564,0.209 l -2.546,0 z m 9.185,-15.072 c 0.89,0 1.704,-0.084 2.442,-0.25 0.737,-0.168 1.378,-0.453 1.921,-0.857 0.542,-0.402 0.96,-0.938 1.252,-1.606 0.293,-0.667 0.439,-1.489 0.439,-2.464 0,-1.086 -0.146,-1.983 -0.439,-2.692 -0.292,-0.71 -0.702,-1.301 -1.231,-1.775 -0.529,-0.474 -1.162,-0.799 -1.899,-0.979 -0.739,-0.183 -1.566,-0.273 -2.485,-0.273 l -3.006,0 -2.965,0 0,10.898 5.971,0 z" /><path
       style="fill:#ef4144"
       id="path51"
       d="m 115.472,222.716 0,-0.041 0,-1.336 c 0,-0.558 0.016,-1.162 0.043,-1.816 0.026,-0.654 0.062,-1.331 0.104,-2.026 0.042,-0.695 0.09,-1.378 0.146,-2.045 0.055,-0.641 0.152,-1.246 0.293,-1.816 0.138,-0.57 0.319,-1.107 0.543,-1.607 0.473,-1.086 1.307,-2.004 2.503,-2.757 0.891,-0.528 1.874,-0.876 2.945,-1.043 1.071,-0.167 2.192,-0.25 3.361,-0.25 1.225,0 2.38,0.083 3.466,0.25 1.085,0.167 2.072,0.529 2.965,1.086 0.61,0.39 1.105,0.8 1.481,1.23 0.376,0.433 0.689,0.898 0.939,1.399 0.278,0.557 0.48,1.17 0.606,1.838 0.125,0.667 0.215,1.377 0.271,2.129 0.056,0.641 0.104,1.288 0.146,1.942 0.042,0.653 0.07,1.287 0.084,1.898 0.014,0.612 0.021,1.176 0.021,1.69 l 0,1.274 0,1.461 c 0,0.613 -0.015,1.273 -0.041,1.983 -0.029,0.709 -0.064,1.448 -0.106,2.212 -0.041,0.767 -0.104,1.483 -0.188,2.15 -0.11,1.06 -0.361,2.005 -0.751,2.841 -0.25,0.557 -0.57,1.059 -0.961,1.503 -0.39,0.446 -0.903,0.877 -1.544,1.294 -0.974,0.641 -2.018,1.017 -3.132,1.128 -1.114,0.111 -2.198,0.166 -3.256,0.166 -0.501,0 -1.023,-0.008 -1.565,-0.02 -0.543,-0.016 -1.085,-0.064 -1.629,-0.146 -0.543,-0.083 -1.079,-0.216 -1.606,-0.396 -0.53,-0.182 -1.045,-0.424 -1.546,-0.731 -1.029,-0.668 -1.775,-1.419 -2.235,-2.255 -0.459,-0.835 -0.771,-1.836 -0.938,-3.006 -0.083,-0.696 -0.156,-1.44 -0.209,-2.234 -0.056,-0.793 -0.098,-1.565 -0.125,-2.316 -0.029,-0.752 -0.05,-1.441 -0.063,-2.066 -0.013,-0.627 -0.022,-1.136 -0.022,-1.523 l 0,-0.044 z m 15.658,-8.309 c -0.222,-0.752 -0.626,-1.405 -1.211,-1.963 -0.667,-0.584 -1.371,-0.932 -2.108,-1.043 -0.739,-0.111 -1.539,-0.167 -2.401,-0.167 -0.808,0 -1.587,0.056 -2.338,0.167 -0.752,0.111 -1.461,0.459 -2.129,1.043 -0.307,0.279 -0.566,0.579 -0.773,0.898 -0.208,0.319 -0.355,0.676 -0.437,1.064 -0.113,0.474 -0.196,1.1 -0.252,1.878 -0.056,0.781 -0.098,1.581 -0.126,2.401 -0.027,0.822 -0.04,1.607 -0.04,2.358 l 0,1.671 c 0,0.361 0.006,0.947 0.02,1.754 0.014,0.808 0.034,1.648 0.062,2.526 0.028,0.876 0.069,1.697 0.126,2.463 0.055,0.767 0.126,1.273 0.21,1.524 0.138,0.389 0.297,0.751 0.48,1.086 0.18,0.333 0.423,0.64 0.73,0.918 0.668,0.584 1.377,0.925 2.129,1.023 0.751,0.098 1.53,0.146 2.338,0.146 0.862,0 1.662,-0.048 2.401,-0.146 0.737,-0.099 1.441,-0.439 2.108,-1.023 0.585,-0.556 0.989,-1.225 1.211,-2.004 0.084,-0.278 0.153,-0.801 0.209,-1.566 0.056,-0.766 0.097,-1.58 0.125,-2.442 0.027,-0.863 0.048,-1.691 0.063,-2.484 0.014,-0.793 0.021,-1.384 0.021,-1.774 0,-0.361 -0.007,-0.945 -0.021,-1.754 -0.015,-0.807 -0.036,-1.643 -0.063,-2.506 -0.028,-0.861 -0.069,-1.677 -0.125,-2.44 -0.056,-0.766 -0.125,-1.301 -0.209,-1.608" /><path
       style="fill:#ef4144"
       id="path53"
       d="m 136.684,208.896 c -0.141,-0.251 -0.126,-0.438 0.042,-0.563 0.166,-0.125 0.347,-0.189 0.542,-0.189 l 2.422,0 c 0.389,0 0.695,0.209 0.918,0.628 l 6.638,12.901 6.682,-12.901 c 0.139,-0.28 0.298,-0.454 0.48,-0.522 0.181,-0.069 0.341,-0.105 0.48,-0.105 l 2.505,0 c 0.167,0 0.313,0.078 0.439,0.231 0.124,0.152 0.118,0.34 -0.02,0.562 l -8.644,16.409 0,11.398 c 0,0.141 -0.056,0.272 -0.167,0.397 -0.112,0.125 -0.25,0.187 -0.418,0.187 l -2.63,0 c -0.167,0 -0.312,-0.062 -0.439,-0.187 -0.124,-0.125 -0.188,-0.257 -0.188,-0.397 l 0,-11.398 -8.642,-16.451 z" /></g></svg>